Thanks to PureTorrents for providing the seedbox.



Movie Info : http://www.imdb.com/title/tt0926084/

Watch streaming (Just like youtube. You need not download): http://puretorrents.cc/cinema.php

General
Complete name                    : Harry Potter And The Deathly Hallows Part 1 2010 720p BRRip MukE [A Pure Release].mp4
Format                           : MPEG-4
Format profile                   : Base Media
Codec ID                         : isom
File size                        : 851 MiB
Duration                         : 2h 18mn
Overall bit rate                 : 861 Kbps

Video
ID                               : 1
Format                           : AVC
Format/Info                      : Advanced Video Codec
Format profile                   : High@L4.2
Format settings, CABAC           : Yes
Format settings, ReFrames        : 3 frames
Codec ID                         : avc1
Codec ID/Info                    : Advanced Video Coding
Duration                         : 2h 18mn
Bit rate mode                    : Variable
Bit rate                         : 794 Kbps
Maximum bit rate                 : 9 891 Kbps
Width                            : 1 280 pixels
Height                           : 536 pixels
Display aspect ratio             : 2.35:1
Frame rate mode                  : Constant
Frame rate                       : 23.976 fps
Color space                      : YUV
Chroma subsampling               : 4:2:0
Bit depth                        : 8 bits
Scan type                        : Progressive
Bits/(Pixel*Frame)               : 0.048
Stream size                      : 784 MiB (92%)
Writing library                  : x264 core 114 r1913 5fd3dce

Audio
ID                               : 2
Format                           : AAC
Format/Info                      : Advanced Audio Codec
Format version                   : Version 4
Format profile                   : LC
Format settings, SBR             : No
Codec ID                         : 40
Duration                         : 2h 18mn
Bit rate mode                    : Variable
Bit rate                         : 64.0 Kbps
Maximum bit rate                 : 108 Kbps
Channel(s)                       : 2 channels
Channel positions                : Front: L R
Sampling rate                    : 48.0 KHz
Compression mode                 : Lossy
Stream size                      : 63.2 MiB (7%)
Language                         : English

Subtitles: English

Screenshots:
 
http://www.pix2links.com/images/53003120217422833487.png 
http://www.pix2links.com/images/05058545195516665745.png

For more screenshots and direct download: http://puretorrents.cc/torrents-details.php?id=6428